<svg width="900" height="560" viewBox="0 0 900 560" fill="none" xmlns="http://www.w3.org/2000/svg">
  <defs>
    <linearGradient id="bg" x1="0" y1="0" x2="900" y2="560" gradientUnits="userSpaceOnUse">
      <stop stop-color="#F7FAFD"/>
      <stop offset="1" stop-color="#EFF6F4"/>
    </linearGradient>
    <linearGradient id="wire" x1="0" y1="0" x2="1" y2="1">
      <stop stop-color="#0D4F78"/>
      <stop offset="1" stop-color="#2B7A64"/>
    </linearGradient>
  </defs>

  <rect x="1" y="1" width="898" height="558" rx="20" fill="url(#bg)" stroke="#C8D9E6" stroke-width="2"/>

  <rect x="54" y="54" width="250" height="120" rx="14" fill="#FFFFFF" stroke="#90B4CB"/>
  <text x="79" y="98" fill="#0D4F78" font-family="'IBM Plex Mono', monospace" font-size="23">Foundation 12</text>
  <text x="79" y="128" fill="#27425A" font-family="'IBM Plex Mono', monospace" font-size="16">Workspace / Scope</text>

  <rect x="336" y="54" width="250" height="120" rx="14" fill="#FFFFFF" stroke="#90B4CB"/>
  <text x="364" y="98" fill="#0D4F78" font-family="'IBM Plex Mono', monospace" font-size="23">Foundation 07</text>
  <text x="364" y="128" fill="#27425A" font-family="'IBM Plex Mono', monospace" font-size="16">Retrieval / Evidence</text>

  <rect x="618" y="54" width="228" height="120" rx="14" fill="#FFFFFF" stroke="#90B4CB"/>
  <text x="645" y="98" fill="#0D4F78" font-family="'IBM Plex Mono', monospace" font-size="23">Foundation 08</text>
  <text x="645" y="128" fill="#27425A" font-family="'IBM Plex Mono', monospace" font-size="16">Ranking / Explain</text>

  <rect x="88" y="236" width="300" height="130" rx="14" fill="#FFFFFF" stroke="#99B8CC"/>
  <text x="114" y="281" fill="#0D4F78" font-family="'IBM Plex Mono', monospace" font-size="23">Foundation 02</text>
  <text x="114" y="312" fill="#27425A" font-family="'IBM Plex Mono', monospace" font-size="16">Orchestration / Decisions</text>

  <rect x="428" y="236" width="384" height="130" rx="14" fill="#FFFFFF" stroke="#99B8CC"/>
  <text x="456" y="281" fill="#0D4F78" font-family="'IBM Plex Mono', monospace" font-size="23">Foundation 10 + 11</text>
  <text x="456" y="312" fill="#27425A" font-family="'IBM Plex Mono', monospace" font-size="16">Output Contract / Observability</text>

  <rect x="255" y="422" width="396" height="90" rx="12" fill="#FFFFFF" stroke="#88B099"/>
  <text x="293" y="477" fill="#2B7A64" font-family="'IBM Plex Mono', monospace" font-size="22">Human-Auditable Result</text>

  <path d="M304 114H336" stroke="url(#wire)" stroke-width="4" stroke-linecap="round"/>
  <path d="M586 114H618" stroke="url(#wire)" stroke-width="4" stroke-linecap="round"/>
  <path d="M237 175V236" stroke="url(#wire)" stroke-width="4" stroke-linecap="round"/>
  <path d="M730 175V236" stroke="url(#wire)" stroke-width="4" stroke-linecap="round"/>
  <path d="M388 301H428" stroke="url(#wire)" stroke-width="4" stroke-linecap="round"/>
  <path d="M451 366V422" stroke="url(#wire)" stroke-width="4" stroke-linecap="round"/>

  <circle cx="237" cy="205" r="7" fill="#D35F1D"/>
  <circle cx="730" cy="205" r="7" fill="#D35F1D"/>
  <circle cx="451" cy="394" r="7" fill="#D35F1D"/>
</svg>
